<svg width="65" height="65" viewBox="0 0 65 65" fill="none" xmlns="http://www.w3.org/2000/svg">
<path d="M9.97866 57.5615L4.95166 1.17599H60.1917L55.1597 57.553L32.5382 63.8245L9.97866 57.5615Z" fill="#1572B6"/>
<path d="M32.572 59.031L50.8515 53.963L55.152 5.78601H32.572V59.031Z" fill="#33A9DC"/>
<path d="M32.572 26.2145H41.723L42.355 19.133H32.572V12.2175H49.913L49.747 14.073L48.047 33.13H32.572V26.2145Z" fill="white"/>
<path d="M32.613 44.1745L32.5825 44.1835L24.881 42.104L24.3885 36.5885H17.4475L18.416 47.447L32.5815 51.3785L32.613 51.3695V44.1745Z" fill="#EBEBEB"/>
<path d="M41.1351 32.8375L40.3021 42.0985L32.5891 44.1805V51.3755L46.7661 47.4465L46.8701 46.278L48.0731 32.8375H41.1351Z" fill="white"/>
<path d="M32.5955 12.2175V19.133H15.8915L15.753 17.579L15.438 14.073L15.2725 12.2175H32.5955ZM32.572 26.2155V33.131H24.9675L24.829 31.577L24.5135 28.071L24.3485 26.2155H32.572Z" fill="#EBEBEB"/>
</svg>
