<svg width="65" height="65" viewBox="0 0 65 65" fill="none" xmlns="http://www.w3.org/2000/svg">
<path d="M9.66733 57.8277L4.58667 0.843475H60.4135L55.3273 57.819L32.4661 64.1565L9.66733 57.8277Z" fill="#E44D26"/>
<path d="M32.5 59.3125L50.9732 54.1907L55.3196 5.50266H32.5V59.3125Z" fill="#F16529"/>
<path d="M32.5 26.6373H23.2517L22.6129 19.4802H32.5V12.4917H14.9749L15.1424 14.3665L16.8599 33.6263H32.5V26.6373ZM32.5 44.788L32.469 44.7967L24.6858 42.6943L24.1886 37.1211H17.1722L18.1512 48.0944L32.468 52.0685L32.5 52.0599V44.788Z" fill="#EBEBEB"/>
<path d="M32.4756 26.6373V33.6263H41.0815L40.2705 42.6903L32.4756 44.7941V52.0655L46.8035 48.0944L46.9086 46.9137L48.5509 28.5142L48.721 26.6373H46.838H32.4756ZM32.4756 12.4917V19.4802H49.3573L49.4975 17.91L49.8164 14.3665L49.9834 12.4917H32.4756Z" fill="white"/>
</svg>
