<svg width="42" height="38" viewBox="0 0 42 38" fill="none" xmlns="http://www.w3.org/2000/svg">
<path d="M6.15138 0.48499C1.1115 1.92496 -0.0484721 5.38488 0.00152677 6.93484H13.3512V37.2341H21.301V6.93484H40.6505C37.7706 1.41497 31.6507 0.334994 28.9508 0.48499H6.15138Z" fill="#A53DFF"/>
<path d="M28.3507 15.7847C33.6306 15.3047 33.3506 11.2848 32.5506 9.33484H41.1004C41.7004 14.4947 37.2505 17.2847 34.9506 18.0346C37.5905 18.1546 39.9505 20.6846 40.8004 21.9345C42.3604 23.6145 42.0504 27.1344 41.7004 28.6844C41.2204 31.9243 37.9005 34.5342 36.3005 35.4342C33.4206 37.7142 26.8008 37.6842 23.8508 37.3842V30.9343L28.9507 30.6343C33.0306 30.3943 33.8506 27.5344 33.7506 26.1344C33.7506 22.1745 30.4507 21.2846 28.8007 21.3346H23.8508V15.9347L28.3507 15.7847Z" fill="#A53DFF"/>
</svg>
