<svg width="60" height="61" viewBox="0 0 60 61" fill="none" xmlns="http://www.w3.org/2000/svg">
<rect y="0.479736" width="60" height="60" rx="4" fill="#F6D35C"/>
<path d="M33.1666 40.4785C31.4299 39.6512 29.9369 38.3885 28.833 36.813H15.7499V17.813H44.2499V21.3977C45.5328 22.2974 46.6118 23.4573 47.4166 24.8019V17.813C47.4141 16.9739 47.0796 16.1699 46.4863 15.5766C45.893 14.9833 45.089 14.6489 44.2499 14.6464H15.7499C14.9108 14.6489 14.1068 14.9833 13.5135 15.5766C12.9202 16.1699 12.5858 16.9739 12.5833 17.813V36.813C12.5858 37.6521 12.9202 38.4561 13.5135 39.0494C14.1068 39.6428 14.9108 39.9772 15.7499 39.9797H26.8332V43.1464H23.6666V46.313H36.3332V43.1464H33.1666V40.4785Z" fill="black"/>
<path d="M37.9168 20.9797C36.0378 20.9797 34.2011 21.5369 32.6388 22.5808C31.0766 23.6246 29.8589 25.1083 29.1399 26.8442C28.4209 28.5801 28.2327 30.4903 28.5993 32.3331C28.9659 34.1759 29.8706 35.8687 31.1992 37.1973C32.5278 38.5259 34.2206 39.4306 36.0634 39.7972C37.9062 40.1638 39.8163 39.9756 41.5522 39.2566C43.2881 38.5376 44.7718 37.3199 45.8157 35.7577C46.8596 34.1954 47.4168 32.3587 47.4168 30.4797C47.4172 29.2321 47.1717 27.9965 46.6945 26.8438C46.2172 25.691 45.5174 24.6435 44.6352 23.7613C43.753 22.8791 42.7055 22.1793 41.5527 21.702C40.4 21.2248 39.1644 20.9793 37.9168 20.9797ZM37.9168 36.8131C36.6641 36.8131 35.4397 36.4416 34.3981 35.7457C33.3566 35.0498 32.5449 34.0607 32.0655 32.9034C31.5862 31.7461 31.4607 30.4727 31.7051 29.2442C31.9495 28.0156 32.5527 26.8871 33.4384 26.0014C34.3241 25.1157 35.4526 24.5125 36.6812 24.2681C37.9097 24.0237 39.1831 24.1491 40.3404 24.6285C41.4977 25.1079 42.4868 25.9196 43.1827 26.9611C43.8786 28.0026 44.2501 29.2271 44.2501 30.4797C44.248 32.1588 43.5801 33.7685 42.3928 34.9558C41.2055 36.143 39.5958 36.811 37.9168 36.8131Z" fill="black"/>
<path d="M37.9166 32.063C38.791 32.063 39.4999 31.3541 39.4999 30.4797C39.4999 29.6052 38.791 28.8964 37.9166 28.8964C37.0421 28.8964 36.3333 29.6052 36.3333 30.4797C36.3333 31.3541 37.0421 32.063 37.9166 32.063Z" fill="black"/>
</svg>
