<svg width="60" height="61" viewBox="0 0 60 61" fill="none" xmlns="http://www.w3.org/2000/svg">
<rect y="0.479736" width="60" height="60" rx="4" fill="#E5CC43"/>
<path d="M23.4834 37.8973L16.0659 30.4798L23.4834 23.0623L24.8404 24.4423L18.8029 30.4798L24.8404 36.5173L23.4834 37.8973ZM18.5001 40.0631H20.4168V42.9381H39.5834V40.0631H41.5001V46.551C41.5001 47.4327 41.2049 48.1687 40.6146 48.759C40.0243 49.3494 39.2876 49.6452 38.4047 49.6465H21.5955C20.7138 49.6465 19.9778 49.3513 19.3875 48.761C18.7972 48.1706 18.5014 47.434 18.5001 46.551V40.0631ZM20.4168 20.8964H18.5001V14.4085C18.5001 13.5269 18.7959 12.7909 19.3875 12.2005C19.9791 11.6102 20.7151 11.3144 21.5955 11.3131H38.4047C39.2863 11.3131 40.0223 11.6089 40.6127 12.2005C41.203 12.7921 41.4988 13.5281 41.5001 14.4085V20.8964H39.5834V18.0214H20.4168V20.8964ZM36.5168 37.8973L35.1598 36.5173L41.1973 30.4798L35.1598 24.4423L36.5168 23.0623L43.9343 30.4798L36.5168 37.8973Z" fill="black"/>
</svg>
