<svg width="64" height="65" viewBox="0 0 64 65" fill="none" xmlns="http://www.w3.org/2000/svg">
<path d="M17.124 31.012C21.9 32.6908 26.9385 33.4989 32 33.398C37.0616 33.4983 42.1001 32.6894 46.876 31.01C50.604 29.556 51.926 27.94 51.926 27.01V19.9C50.6226 20.7729 49.2243 21.4948 47.758 22.052C42.7049 23.8614 37.3666 24.7436 32 24.656C26.6338 24.7419 21.2961 23.8612 16.242 22.056C14.7749 21.4988 13.3765 20.7754 12.074 19.9V27C12.074 27.948 13.4 29.556 17.124 31.012ZM17.124 44.422C18.8112 45.0655 20.551 45.5613 22.324 45.904C25.5121 46.5208 28.7528 46.8242 32 46.81C35.2471 46.8249 38.4878 46.5221 41.676 45.906C43.4489 45.5633 45.1887 45.0674 46.876 44.424C50.604 42.97 51.926 41.354 51.926 40.424V33.644C50.8486 34.2923 49.7162 34.8444 48.542 35.294C43.2335 37.1735 37.6304 38.0833 32 37.98C26.3689 38.0801 20.7658 37.1669 15.458 35.284C14.2842 34.8333 13.1519 34.2812 12.074 33.634V40.42C12.074 41.352 13.4 42.962 17.124 44.422ZM32 60.5C43 60.5 51.926 57.012 51.926 52.712V47.038C50.9459 47.6288 49.9191 48.1385 48.856 48.562L48.542 48.688C43.2346 50.5731 37.6314 51.4883 32 51.39C26.3684 51.4912 20.7647 50.5759 15.458 48.688C15.35 48.648 15.246 48.602 15.144 48.562C14.0808 48.1385 13.0541 47.6288 12.074 47.038V52.712C12.074 57.012 21 60.5 32 60.5Z" fill="#38BDF8"/>
<path d="M32 20.076C43.0048 20.076 51.926 16.5892 51.926 12.288C51.926 7.98681 43.0048 4.5 32 4.5C20.9951 4.5 12.074 7.98681 12.074 12.288C12.074 16.5892 20.9951 20.076 32 20.076Z" fill="#38BDF8"/>
</svg>
