<svg width="85" height="65" viewBox="0 0 85 65" fill="none" xmlns="http://www.w3.org/2000/svg">
<g clip-path="url(#clip0_1656_1952)">
<mask id="mask0_1656_1952" style="mask-type:luminance" maskUnits="userSpaceOnUse" x="0" y="0" width="85" height="65">
<path d="M0.928467 0.5H84.9285V64.5H0.928467V0.5Z" fill="white"/>
</mask>
<g mask="url(#mask0_1656_1952)">
<path fill-rule="evenodd" clip-rule="evenodd" d="M42.9285 0.5C31.7285 0.5 24.7285 7.48182 21.9285 21.4455C26.1285 14.4636 31.0285 11.8455 36.6285 13.5909C39.8236 14.5858 42.1071 17.4775 44.6349 20.6755C48.7525 25.8867 53.5187 31.9182 63.9285 31.9182C75.1285 31.9182 82.1285 24.9364 84.9285 10.9727C80.7285 17.9545 75.8285 20.5727 70.2285 18.8273C67.0334 17.8324 64.7498 14.9407 62.222 11.7427C58.1045 6.53151 53.3382 0.5 42.9285 0.5ZM21.9285 31.9182C10.7285 31.9182 3.72847 38.9 0.928467 52.8636C5.12847 45.8818 10.0285 43.2636 15.6285 45.0091C18.8236 46.0059 21.1071 48.8956 23.6349 52.0937C27.7525 57.3048 32.5187 63.3364 42.9285 63.3364C54.1285 63.3364 61.1285 56.3545 63.9285 42.3909C59.7285 49.3727 54.8285 51.9909 49.2285 50.2455C46.0334 49.2505 43.7498 46.3589 41.222 43.1608C37.1045 37.9497 32.3382 31.9182 21.9285 31.9182Z" fill="#38BDF8"/>
</g>
</g>
<defs>
<clipPath id="clip0_1656_1952">
<rect width="84" height="64" fill="white" transform="translate(0.928467 0.5)"/>
</clipPath>
</defs>
</svg>
